<?xml version="1.0" standalone="no"?><!DOCTYPE svg PUBLIC "-//W3C//DTD SVG 1.1//EN" "http://www.w3.org/Graphics/SVG/1.1/DTD/svg11.dtd"><svg t="1550147989142" class="icon" style="" viewBox="0 0 1024 1024" version="1.1" xmlns="http://www.w3.org/2000/svg" p-id="22242" xmlns:xlink="http://www.w3.org/1999/xlink" width="128" height="128"><defs><style type="text/css"></style></defs><path d="M955.898486 907.800371c-30.543447-0.787492-61.185331-4.640579-91.967838-12.834247-248.163164-68.314947-490.715445-158.918736-690.565026-320.293699-17.65295-13.907675-33.77779-30.065327-47.999524-47.929212l6.248376-5.629632a2159.134835 2159.134835 0 0 1 25.832556-22.870085 2720.143334 2720.143334 0 0 1 43.762066-37.359005c37.29338-31.213753 75.327378-61.49939 113.623873-91.414718C456.778436 256.356832 602.63324 150.696943 747.892736 43.213634c23.70914-17.531076 69.111815-72.13991 83.46011-23.554454 10.471771 35.643396 7.349927 74.389887 13.448304 110.731714l0.032812 0.145311c8.535853 50.610436 17.085768 101.216184 25.602871 151.817245 27.52004 163.456191 58.20411 327.053006 75.730499 492.285742 0.53437 4.945263 1.045302 9.899902 1.523423 14.849853 1.499985 14.976414 2.859347 29.980953 4.026522 44.999553 0.435933 5.50307 0.867179 11.034266 1.214051 16.551399a1480.297818 1480.297818 0 0 1 2.967158 56.760374" fill="#E94E51" p-id="22243"></path><path d="M951.600091 995.047943c-5.221823 8.315543-15.102975 12.35144-24.506007 15.318598-62.202508 19.631055-129.472153 15.229536-193.816828 4.471831-261.944277-43.898002-504.309061-194.918379-659.149712-410.709989-3.548402-4.931201-7.190554-10.410834-6.77337-16.457649 0.435933-6.449936 5.367134-11.601447 10.026463-16.096715a1590.715473 1590.715473 0 0 1 17.038893-16.232652 1977.266327 1977.266327 0 0 1 30.951256-28.598154c14.221734 17.859198 30.351261 34.01685 47.994836 47.924525 199.858955 161.370274 442.40655 251.978751 690.569713 320.289011 30.782507 8.193669 61.424391 12.051443 91.972526 12.838935 0.473433 14.109235 0.740618 28.190345 0.726555 42.294893 0 7.242116-0.070312 14.474856-0.224998 21.707597-0.178123 8.015546-0.529682 16.448274-4.809327 23.249769" fill="#008169" p-id="22244"></path><path d="M956.634416 950.099952c-128.225291 4.204646-254.734973-33.834039-373.655669-82.616368a2066.557628 2066.557628 0 0 1-296.167375-150.387571c-71.886787-44.118312-142.395463-93.950631-192.396529-161.754646a2024.126799 2024.126799 0 0 1 30.951255-28.602841l6.248376-5.629632a2123.6555 2123.6555 0 0 1 25.837243-22.870086c2.090604 2.653099 4.096834 5.06245 5.953066 7.129617 189.79968 210.776034 472.973434 317.396852 752.748784 327.207692 11.746758 0.403121 23.765389 0.71718 35.573085 1.903106 0.440621 5.50307 0.871866 11.034266 1.218738 16.551399 1.335924 18.895125 2.343727 37.82775 2.967158 56.760374 0.464058 14.11861 0.73593 28.19972 0.721868 42.308956" fill="#EBECA5" p-id="22245"></path><path d="M952.940703 851.039997c-8.353042 6.473373-17.784199 11.620197-27.618476 14.938914-39.233986 13.195182-82.114811 5.039013-122.436286-4.246833-213.705693-49.213574-423.853609-129.200281-596.994079-263.791134-27.44504-21.332601-55.063516-47.507341-74.277388-76.822675a2612.106905 2612.106905 0 0 1 69.599309-60.224403c17.315453 33.130921 46.190167 61.175956 75.289879 85.700713 155.342209 131.028388 347.841863 217.488468 548.971117 246.560054 40.466786 5.849942 84.21479 8.643664 122.220663-3.660901 1.499985 14.976414 2.859347 29.980953 4.026523 44.999554 0.440621 5.493696 0.867179 11.020203 1.218738 16.546711" fill="#F8CCD4" p-id="22246"></path><path d="M620.187753 295.215822c-9.60928 0.614056-17.371703 9.843652-23.137271 16.870145-7.143679 8.699914-12.440502 19.002937-16.134215 29.591894-2.976533 8.54054 6.576497 20.085738 15.62797 14.563918 15.435784-9.412407 37.026195-26.549737 39.266798-46.077668 2.718723-23.765389-33.421544-23.207582-30.566884 0.782805 0.77343 6.487436 6.543685 10.28896 12.38894 11.395199l0.970303 0.182811c17.423265 3.29528 19.795116-24.215385 2.442163-27.496602l-0.97499-0.182811 12.388939 11.3952-3.501528 10.035838-9.946776 3.056219 1.195301 0.187498c-3.159344-1.668733-6.318687-3.351529-9.473344-5.020262-0.131249-6.717121-0.862491-8.30148-2.179666-4.771828-0.707805 1.579672-1.551547 3.093719-2.52185 4.537455-1.795295 2.929658-3.843712 5.784318-6.014003 8.456166-4.476518 5.50307-9.806153 9.960839-15.567033 14.052986 6.2765 3.323405 12.553 6.646809 18.829501 9.979588 1.992168-8.873349 5.57807-17.221704 10.410834-24.895065 4.064022-6.468686 10.607707-12.013943 12.440502-19.490432 1.01249-4.148396-1.631234-7.429614-5.943691-7.153054M731.406962 347.584053c-12.299878 14.938914-17.61545 59.680658 7.251491 66.50559 14.601418 4.007773 20.962292-10.682707 20.146675-22.602901-1.120301-16.377963-5.526508-32.432491-10.410834-48.027649-4.968701-15.852968-30.627821-5.099949-24.032574 10.959267 3.065595 7.476488 5.901504 15.042038 8.156169 22.799774 0.960928 3.299967 1.828107 6.632747 2.681223 9.960838 0.464058 1.771857 1.518735 10.720206 3.215593 8.437417 1.279675-1.72967-3.839024-17.081081-3.918711-21.356038-0.140624-8.04367 2.104667-15.145162 3.979648-22.888836 1.04999-4.331207-4.017148-7.495238-7.06868-3.787462M458.822166 414.703699c-18.679502-3.403091-35.343399 24.337259-40.11054 38.919927-2.624974 8.029608 3.899961 17.657637 12.979559 15.651407 18.44513-4.078085 35.282463-20.19355 33.468418-40.105852-1.143739-12.553-19.766991-13.213931-23.784139-2.221853-2.887471 7.903047-4.364019 16.387337-13.682677 19.227934l13.682677 12.585813c0.998428-8.029608 3.501528-14.845165 8.493666-21.332601 4.274958-5.55932 10.467084-9.379594 13.195181-15.998279 1.326549-3.229655-1.195301-6.178064-4.242145-6.726496M603.556668 486.623299c-9.107722 3.703088-14.334233 15.290473-17.577951 24.046636-3.970273 10.692081-4.903076 21.454475-4.321832 32.74655 0.370309 7.232741 10.415522 12.206129 16.504524 8.709289 21.323226-12.229566 32.549677-41.226154 20.91073-64.161864-8.7796-17.287329-35.854332-5.137449-27.50129 12.543626 2.784347 5.878067 4.678079 9.768653 3.346842 16.588898-1.171863 6.01869-4.481206 11.207701-9.098347 15.168599l19.068561 7.12493c-1.973418-8.287418-2.30154-16.542023-0.187498-24.848191 1.917168-7.560863 7.003056-13.734239 8.090544-21.388851 0.721868-5.090575-4.912451-8.287418-9.234283-6.529622M739.638131 538.743094c-7.973358 15.267036-11.3202 31.827809-10.218649 49.021389 0.876554 13.457679 7.921796 32.071557 25.157563 27.876286 14.788916-3.599964 19.007624-22.485714 18.829501-35.554335-0.23906-16.977957-7.082742-31.912183-19.452932-43.34957-13.059245-12.070193-32.587177 9.323345-21.220102 22.485715 4.040585 4.678079 8.048358 9.548343 9.862402 15.576408 0.867179 2.882784 1.364049 6.271813 1.392174 9.290532 0 1.659359-0.121874 3.304655-0.365622 4.945264-1.110926 4.467143 2.259353 5.343697 10.1249 2.615599 0.782805-1.143739-1.903106-10.063963-2.048417-11.535823a71.910224 71.910224 0 0 1-0.065625-12.098318 94.311565 94.311565 0 0 1 4.720266-23.029459c3.745275-11.179577-11.531136-16.18109-16.715459-6.243688" fill="#FFFFFF" p-id="22247"></path><path d="M741.874046 541.757127c-14.962352 18.482629-17.559201 44.994866-16.265464 67.879014 0.712493 12.567063 18.895125 15.102975 25.438811 5.887442 14.896727-20.985729 16.902957-49.433885 3.370279-71.652415-7.354615-12.07488-28.635653-11.985819-29.568457 5.057763-0.234373 4.30777-0.473433 8.610852-0.614057 12.923309-0.674993 20.113863 30.665321 23.052896 31.302815 2.774972 0.126561-4.321832 0.173436-8.634289 0.22031-12.956121l-27.473165 8.432729c7.82336 11.653009 7.293678 27.210668-0.187498 38.807427l24.356009 2.437476c-6.346812-18.135758-1.846857-34.448096 3.346841-52.12917 2.526537-8.606165-8.132732-14.624855-13.926424-7.462426M732.991322 342.727851c-9.965526 18.060758-13.059245 36.248078-17.784199 56.015069-3.899961 16.307651 14.292046 26.643486 25.809119 13.832675 14.41392-16.040466 20.324798-48.257334 10.626457-67.747765-6.431186-12.937372-28.405968-10.912392-29.024712 4.973388-0.332809 8.503041 1.298425 16.865458 0.29531 25.373186-1.003115 8.52179-4.842139 15.618595-7.706174 23.568516l28.396593 2.643724c-3.192156-16.527961 1.153114-34.138724 5.184324-50.188565 2.235915-8.901474-10.429584-18.206069-15.796718-8.470228M621.851799 301.323574c-6.913994 5.976503-9.731153 15.056101-15.267036 22.256029-6.623372 8.624914-14.948289 15.360785-24.552882 20.385735l19.115436 17.817011c4.185896-10.528021 11.648322-17.709199 22.007594-22.087281 17.798261-7.509301 5.26401-35.038715-12.440502-27.280979-17.371703 7.607737-30.135639 21.4076-36.060579 39.468358-4.28902 13.073308 11.006141 25.031002 22.185717 15.913905 16.157652-13.176432 40.701159-41.943334 32.901236-64.621234-1.068739-3.112469-5.573382-3.848399-7.888984-1.851544M596.605174 489.318584c-7.945234 3.299967-11.681134 11.535823-15.974841 18.604503-5.151511 8.484291-10.059275 17.113893-15.079538 25.677871-7.228053 12.31394 7.223366 29.254397 19.448244 18.356068 12.731124-11.348325 24.656005-27.121606 27.782537-44.1605 2.564037-13.977986-17.568576-19.921677-25.152875-9.398344-4.073397 5.657756-6.501498 12.187379-10.129587 18.13107-3.609339 5.910879-7.84211 11.498323-11.948319 17.071706l23.554454 12.618624c3.478091-9.384282 7.092117-18.721689 10.429584-28.16222 2.732785-7.715548 7.143679-16.509211 4.734328-24.693505-1.003115-3.426529-4.120272-5.517133-7.663987-4.045273M471.29548 428.611374l-0.614057-0.806242c-2.756223-3.614027-7.438989-4.04996-11.399887-2.657786-26.165365 9.182721-47.774526 30.75907-60.786897 54.782269-7.884297 14.549856 6.520248 28.326282 20.685733 19.523244 21.68416-13.471741 50.108878-37.8465 54.402585-64.349362 1.903106-11.774883-13.513928-18.782626-22.091968-11.713946-9.398344 7.748361-14.952977 19.115435-22.743525 28.382531-8.104607 9.646779-17.751386 17.770136-27.698163 25.452872l22.499777 16.129528c9.496781-22.771649 25.860681-38.258996 45.758921-52.058859 2.667161-1.846857 4.06871-5.948379 3.389029-9.060847-0.285935-1.326549-0.55312-2.507788-1.401548-3.623402" fill="#3D5053" p-id="22248"></path><path d="M738.217832 101.938051c-9.449906-3.309342-20.802919 3.895274-26.952857 10.799893-6.871807 7.710861-9.707716 19.874803-2.531225 28.47628 17.109205 20.526359 54.515084-3.618714 56.572876-25.42006 1.523422-16.10609-11.493636-31.138754-28.223157-29.160648-11.79832 1.392174-24.295072 9.660842-31.021568 19.42012-10.448334 15.126412-4.645266 36.435576 12.632687 43.31207 7.078055 2.821847 15.651407 2.324977 22.443528-1.026552 9.388969-4.631204 13.56549-12.637375 15.679532-22.415403 2.104667-9.749903-7.003056-19.607618-15.815468-21.468537-9.928027-2.095292-19.701367 2.934346-23.521642 12.548313l1.01249-1.78592c9.337407-7.945234 15.520159-7.359302 18.529504 1.753108 3.8109 2.474975 4.870264 5.292135 3.178093 8.451479-1.218738 2.826534-1.035927 3.028095 0.53437 0.609368-1.476548 0.768742 0.796867-0.449996 1.256237-0.749992 1.153114-0.778117 2.807785-2.24529 2.924971-2.085917-0.604682 0.623431-1.392174 0.834367-2.367164 0.632806-3.370279 0.932803-6.435874-0.126561-9.210846-3.187468l-1.682796-3.445278 0.576557-3.576527c0.75468 0.628119-3.745275 4.284333-4.223395 4.682766-1.082802 0.909366-5.657756 4.04996-5.624945 4.223395 0.164061 0.778117 4.607767 3.009345 4.467144 3.079657 0.168748-0.089062 0.45937-1.996855 0.623431-2.254665 3.599964-5.512445 9.407719-8.896787 12.881122-14.343608 1.579672-2.465601 0.848429-6.01869-2.137479-7.06868M668.407587 159.364044c-1.514047-0.135936-2.789035 0.173436-4.214021 0.656244-1.04999 0.351559-2.643724 0.820304-3.7359 1.762482-2.390601 2.067167-2.240603 6.918681 1.293737 7.837423 2.774972 0.721868 5.423384 0.660931 8.104607-0.435934 0.857804-0.351559 1.631234-0.839054 2.399977-1.354674 0.224998-0.131249 0.440621-0.281247 0.646868-0.435933-0.29531 0.173436-0.585932 0.356246-0.881241 0.539057 1.626546-1.017177 3.01872-1.912481 4.167146-3.51559 2.849972-3.956211 1.74842-9.088972-1.612484-12.257691a10.209274 10.209274 0 0 0-6.192126-2.873409c-2.549975-0.229685-5.774943 0.539057-7.621799 2.432789a9.857715 9.857715 0 0 0-3.492153 9.342095c0.595307 3.426529 3.014033 6.346812 6.2765 7.56555s7.003056 0.599994 9.703029-1.60311c2.507788-2.048417 4.424956-6.042128 3.487465-9.33272a0.745305 0.745305 0 0 1-0.070312-0.374996l0.103124 2.498413 0.032812-0.159373-0.571869 2.498412 0.070312-0.149998-1.195301 2.231228 0.103124-0.135937-1.664046 1.757796a1.181238 1.181238 0 0 1 0.290622-0.239061c-0.665618 0.403121-1.321862 0.815617-1.98748 1.228113a1.54686 1.54686 0 0 1 0.356247-0.168748l-2.170291 0.674993a1.687483 1.687483 0 0 1 0.398433-0.089061l-2.24529 0.093749a1.424986 1.424986 0 0 1 0.398433 0.014062c-0.73593-0.173436-1.47186-0.337497-2.20779-0.501558a0.989053 0.989053 0 0 1 0.342184 0.117187c-0.646869-0.356246-1.28905-0.693743-1.945293-1.045302l-2.807785-4.523393 0.098437 0.356246c0.051562 0.346872 0.056249 1.246863 0.103124 0.117187a2.039042 2.039042 0 0 1 0.098436-1.059365c0.154686-0.562494 0.173436-0.674993 0.05625-0.328121-0.093749 0.707805-0.796867 0.548432 0.192185-0.25781-0.159373 0.131249-0.309372 0.449996-0.440621 0.628118-0.506245 0.726555 0.215623-0.201561 0.210936-0.210935 0.032812 0.093749-1.073427 0.73593-0.370309 0.332809 0.618744-0.356246-0.440621 0.159373-0.47812 0.168749l6.459311 4.574954c-0.009375-0.281247 0.098437-2.189041-0.0375-1.101551a4.556205 4.556205 0 0 1 0.046875-0.49687c0.093749-0.506245-0.060937-0.243748-0.459371 0.787492 0.093749 0.014062 0.595307-0.529682 0.656244-0.567182 0.318747-0.206248 0.707805-0.328122 1.068739-0.445308 2.362477-0.796867 1.448423-4.349957-0.764055-4.551518" fill="#EF858E" p-id="22249"></path><path d="M844.337092 979.837157c-6.023378-12.787373-23.15602-11.3202-32.057494-2.437476-6.843682 6.838995-7.692111 18.229507 0.543744 24.538819 6.834307 5.235886 17.062331 5.362447 25.227875 4.659329 7.78586-0.665618 16.598273-3.159344 22.635713-8.315543 8.376479-7.167116 10.640519-19.720117 3.149969-28.49503-13.167057-15.421722-39.276173-6.843682-53.015099 2.784348-8.090545 5.671819-8.531165 18.552941-2.610912 25.771619 7.621799 9.290533 18.215444 12.974871 29.98564 11.620197 9.796778-1.124989 17.409202-12.206129 15.323286-21.735721-2.273415-10.415522-11.263951-16.523274-21.735722-15.323286 2.432788-0.281247 3.23903 0.768742 4.809327 2.273415l-2.615599 25.780994c0.862491-0.820304 1.76717-1.584359 2.709348-2.296852 1.724983-1.218738 1.917168-1.373424 0.567182-0.47812a29.01065 29.01065 0 0 1 4.837452-2.198416c-2.442163 0.829679 2.554662-0.440621 2.624974-0.45937 1.157801-0.201561 2.320289-0.365621 3.487465-0.501558a7.781173 7.781173 0 0 1-5.085887-1.228113l-5.118699-6.25775 0.543745 1.181238c-0.454683-2.634349-0.899991-5.26401-1.359362-7.898359 0.370309-1.884356 1.199988-3.468716 2.479663-4.76714a44.305811 44.305811 0 0 1-1.181238 0.628119c-1.678108 0.806242-3.426529 1.631234-5.207761 2.137478-1.80467 0.506245-3.721838 0.604682-5.568695 0.923429-3.581214 0.609369-1.335924-0.731243 0.623432 1.889043l2.568724 5.639007c0.520307 2.634349-1.406236 1.326549 0.520307 0.281247 0.745305-0.407808 1.354674-0.998428 2.118729-1.387486 2.334352-1.199988 5.06245-2.128104 7.696799-1.978105 2.296852 0.149999 4.115584-2.184353 3.103094-4.349957M771.381566 978.294985a8.52179 8.52179 0 0 0-2.639036-0.801555c-1.082802-0.098437-2.231228 0.154686-3.29528 0.323434l-3.890587 0.604682c-5.170261 0.810929-8.109295 6.665559-5.98119 11.334262 2.128104 4.659329 8.484291 6.285875 12.478001 2.910909l3.014032-2.535912c0.637494-0.539057 1.246863-1.054677 1.82342-1.664046 0.857804-0.904679 1.345299-1.959356 1.71092-3.131219 0.914053-2.939033-0.374996-5.803067-3.22028-7.040555" fill="#2AB092" p-id="22250"></path></svg>